<svg width="22" height="22" viewBox="0 0 22 22" fill="none" xmlns="http://www.w3.org/2000/svg">
	<path d="M10.2685 6.60009L5.86573 4.44427V9.31079L10.2685 11.2701V6.60009Z" fill="white" />
	<path d="M0.2887 18.559L4.40281 20.3885V15.7182L0 13.5624V18.1146C0 18.3068 0.113134 18.4809 0.2887 18.559Z" fill="white" />
	<path d="M10.2685 13.5621L5.86165 15.7183V20.3891L10.2685 18.4321V13.5621Z" fill="white" />
	<path d="M9.27379 12.4246L5.13811 10.5855L0.995171 12.4253L5.13231 14.4511L9.27379 12.4246Z" fill="white" />
	<path d="M22 13.6419L17.5891 15.7254V20.3891L21.6648 18.5792C21.8686 18.4887 22 18.2866 22 18.0635V13.6419Z" fill="white" />
	<path d="M15.1296 3.38684L11.4031 1.701C11.1418 1.5828 10.8426 1.58078 10.5798 1.6955L6.87285 3.31302L11.0037 5.33568L15.1296 3.38684Z" fill="white" />
	<path d="M21.0051 12.4985L16.8621 10.5871L12.7226 12.4253L16.8654 14.4538L21.0051 12.4985Z" fill="white" />
	<path d="M11.7312 18.4323L16.1302 20.3885V15.7182L11.7281 13.5627L11.7312 18.4323Z" fill="white" />
	<path d="M16.1384 9.31221V4.52381L11.7274 6.60722V11.271L13.6781 10.4047L16.1384 9.31221Z" fill="white" />
</svg>
